<?xml version="1.0" encoding="UTF-8"?>
<svg xmlns="http://www.w3.org/2000/svg" version="1.1" width="300" height="300" viewBox="0 0 300 300"><rect x="0" y="0" width="300" height="300" fill="#fefefe"/><g transform="scale(8.108)"><g transform="translate(4,4)"><path fill-rule="evenodd" d="M8 0L8 1L9 1L9 2L8 2L8 5L9 5L9 4L11 4L11 5L10 5L10 10L9 10L9 11L8 11L8 10L5 10L5 11L2 11L2 10L3 10L3 9L4 9L4 8L0 8L0 10L1 10L1 11L0 11L0 14L1 14L1 11L2 11L2 15L1 15L1 16L2 16L2 17L1 17L1 18L0 18L0 19L1 19L1 18L2 18L2 19L3 19L3 18L6 18L6 19L7 19L7 20L6 20L6 21L8 21L8 22L9 22L9 23L10 23L10 22L11 22L11 21L10 21L10 20L12 20L12 19L11 19L11 17L10 17L10 19L9 19L9 18L8 18L8 17L9 17L9 13L11 13L11 15L10 15L10 16L12 16L12 17L13 17L13 16L12 16L12 14L13 14L13 15L14 15L14 18L13 18L13 21L15 21L15 19L16 19L16 23L15 23L15 22L14 22L14 23L11 23L11 24L9 24L9 25L8 25L8 29L12 29L12 28L14 28L14 27L15 27L15 28L16 28L16 27L15 27L15 26L20 26L20 28L19 28L19 27L18 27L18 29L24 29L24 26L26 26L26 27L25 27L25 28L26 28L26 27L27 27L27 29L28 29L28 27L29 27L29 25L28 25L28 27L27 27L27 26L26 26L26 25L27 25L27 24L26 24L26 22L27 22L27 23L28 23L28 24L29 24L29 23L28 23L28 22L29 22L29 21L27 21L27 18L28 18L28 15L29 15L29 13L27 13L27 12L25 12L25 13L26 13L26 15L27 15L27 17L26 17L26 16L25 16L25 14L24 14L24 17L23 17L23 18L22 18L22 20L20 20L20 22L19 22L19 23L20 23L20 25L16 25L16 23L18 23L18 22L17 22L17 21L19 21L19 19L17 19L17 17L16 17L16 16L17 16L17 14L18 14L18 15L19 15L19 16L18 16L18 17L21 17L21 16L23 16L23 13L24 13L24 12L23 12L23 13L21 13L21 14L20 14L20 12L22 12L22 11L23 11L23 10L24 10L24 11L25 11L25 9L27 9L27 8L24 8L24 9L22 9L22 8L21 8L21 9L19 9L19 8L20 8L20 7L21 7L21 5L20 5L20 4L19 4L19 5L17 5L17 4L18 4L18 3L19 3L19 2L18 2L18 1L21 1L21 0L17 0L17 1L16 1L16 0L15 0L15 1L16 1L16 2L18 2L18 3L17 3L17 4L15 4L15 3L14 3L14 5L13 5L13 3L12 3L12 4L11 4L11 2L14 2L14 0L12 0L12 1L11 1L11 0L10 0L10 1L9 1L9 0ZM20 2L20 3L21 3L21 2ZM12 5L12 6L11 6L11 8L12 8L12 6L13 6L13 8L14 8L14 9L15 9L15 10L14 10L14 11L11 11L11 13L12 13L12 12L13 12L13 14L14 14L14 15L15 15L15 16L16 16L16 14L14 14L14 12L15 12L15 11L16 11L16 9L15 9L15 7L16 7L16 6L17 6L17 7L18 7L18 8L17 8L17 10L18 10L18 8L19 8L19 7L20 7L20 6L19 6L19 7L18 7L18 6L17 6L17 5L14 5L14 6L13 6L13 5ZM8 6L8 7L9 7L9 6ZM14 6L14 7L15 7L15 6ZM6 8L6 9L7 9L7 8ZM8 8L8 9L9 9L9 8ZM28 8L28 10L26 10L26 11L28 11L28 12L29 12L29 11L28 11L28 10L29 10L29 8ZM11 9L11 10L12 10L12 9ZM19 10L19 11L17 11L17 12L16 12L16 13L17 13L17 12L18 12L18 14L19 14L19 11L20 11L20 10ZM5 11L5 12L4 12L4 13L3 13L3 14L4 14L4 15L5 15L5 14L7 14L7 15L6 15L6 16L7 16L7 17L6 17L6 18L7 18L7 19L8 19L8 18L7 18L7 17L8 17L8 16L7 16L7 15L8 15L8 13L9 13L9 12L8 12L8 11ZM6 12L6 13L7 13L7 12ZM21 14L21 15L22 15L22 14ZM2 15L2 16L3 16L3 15ZM2 17L2 18L3 18L3 17ZM24 17L24 18L25 18L25 19L23 19L23 20L26 20L26 18L25 18L25 17ZM20 18L20 19L21 19L21 18ZM4 19L4 20L1 20L1 21L4 21L4 20L5 20L5 19ZM8 20L8 21L9 21L9 20ZM21 21L21 24L24 24L24 21ZM22 22L22 23L23 23L23 22ZM12 24L12 26L10 26L10 25L9 25L9 26L10 26L10 28L12 28L12 26L13 26L13 27L14 27L14 26L15 26L15 24ZM25 24L25 25L26 25L26 24ZM13 25L13 26L14 26L14 25ZM20 25L20 26L21 26L21 27L22 27L22 28L23 28L23 26L24 26L24 25L22 25L22 26L21 26L21 25ZM0 0L0 7L7 7L7 0ZM1 1L1 6L6 6L6 1ZM2 2L2 5L5 5L5 2ZM22 0L22 7L29 7L29 0ZM23 1L23 6L28 6L28 1ZM24 2L24 5L27 5L27 2ZM0 22L0 29L7 29L7 22ZM1 23L1 28L6 28L6 23ZM2 24L2 27L5 27L5 24Z" fill="#000000"/></g></g></svg>
